G04 (created by PCBNEW-RS274X (2012-01-18 BZR 3371)-testing) date Sun 05 Feb 2012 03:34:20 PM EST*
G01*
G70*
G90*
%MOIN*%
G04 Gerber Fmt 3.4, Leading zero omitted, Abs format*
%FSLAX34Y34*%
G04 APERTURE LIST*
%ADD10C,0.006000*%
%ADD11C,0.005000*%
%ADD12C,0.090000*%
%ADD13R,0.090000X0.090000*%
%ADD14R,0.080000X0.080000*%
%ADD15C,0.080000*%
%ADD16R,0.075000X0.075000*%
%ADD17C,0.075000*%
%ADD18R,0.055000X0.075000*%
G04 APERTURE END LIST*
G54D10*
G54D11*
X22670Y-14390D02*
X22300Y-14390D01*
X22700Y-13770D02*
X22300Y-13770D01*
X21500Y-14390D02*
X21880Y-14390D01*
X21500Y-13770D02*
X21890Y-13770D01*
X22800Y-14380D02*
X22799Y-14389D01*
X22796Y-14399D01*
X22791Y-14407D01*
X22785Y-14415D01*
X22777Y-14421D01*
X22769Y-14426D01*
X22760Y-14428D01*
X22750Y-14429D01*
X22741Y-14429D01*
X22732Y-14426D01*
X22723Y-14421D01*
X22716Y-14415D01*
X22709Y-14408D01*
X22705Y-14399D01*
X22702Y-14390D01*
X22701Y-14380D01*
X22701Y-14371D01*
X22704Y-14362D01*
X22708Y-14353D01*
X22715Y-14346D01*
X22722Y-14339D01*
X22730Y-14335D01*
X22740Y-14332D01*
X22749Y-14331D01*
X22758Y-14331D01*
X22768Y-14334D01*
X22776Y-14338D01*
X22784Y-14344D01*
X22790Y-14352D01*
X22795Y-14360D01*
X22798Y-14369D01*
X22799Y-14379D01*
X22800Y-14380D01*
X22700Y-14380D02*
X22700Y-13780D01*
X21500Y-13780D02*
X21500Y-14380D01*
X18776Y-15258D02*
X19038Y-15519D01*
X18317Y-15675D02*
X18599Y-15958D01*
X19603Y-16085D02*
X19335Y-15816D01*
X19165Y-16523D02*
X18889Y-16248D01*
X18763Y-15208D02*
X18762Y-15217D01*
X18759Y-15227D01*
X18754Y-15235D01*
X18748Y-15243D01*
X18740Y-15249D01*
X18732Y-15254D01*
X18723Y-15256D01*
X18713Y-15257D01*
X18704Y-15257D01*
X18695Y-15254D01*
X18686Y-15249D01*
X18679Y-15243D01*
X18672Y-15236D01*
X18668Y-15227D01*
X18665Y-15218D01*
X18664Y-15208D01*
X18664Y-15199D01*
X18667Y-15190D01*
X18671Y-15181D01*
X18678Y-15174D01*
X18685Y-15167D01*
X18693Y-15163D01*
X18703Y-15160D01*
X18712Y-15159D01*
X18721Y-15159D01*
X18731Y-15162D01*
X18739Y-15166D01*
X18747Y-15172D01*
X18753Y-15180D01*
X18758Y-15188D01*
X18761Y-15197D01*
X18762Y-15207D01*
X18763Y-15208D01*
X18748Y-15244D02*
X18324Y-15668D01*
X19172Y-16516D02*
X19596Y-16092D01*
X22190Y-14570D02*
X22560Y-14570D01*
X22160Y-15190D02*
X22560Y-15190D01*
X23360Y-14570D02*
X22980Y-14570D01*
X23360Y-15190D02*
X22970Y-15190D01*
X22160Y-14580D02*
X22159Y-14589D01*
X22156Y-14599D01*
X22151Y-14607D01*
X22145Y-14615D01*
X22137Y-14621D01*
X22129Y-14626D01*
X22120Y-14628D01*
X22110Y-14629D01*
X22101Y-14629D01*
X22092Y-14626D01*
X22083Y-14621D01*
X22076Y-14615D01*
X22069Y-14608D01*
X22065Y-14599D01*
X22062Y-14590D01*
X22061Y-14580D01*
X22061Y-14571D01*
X22064Y-14562D01*
X22068Y-14553D01*
X22075Y-14546D01*
X22082Y-14539D01*
X22090Y-14535D01*
X22100Y-14532D01*
X22109Y-14531D01*
X22118Y-14531D01*
X22128Y-14534D01*
X22136Y-14538D01*
X22144Y-14544D01*
X22150Y-14552D01*
X22155Y-14560D01*
X22158Y-14569D01*
X22159Y-14579D01*
X22160Y-14580D01*
X22160Y-14580D02*
X22160Y-15180D01*
X23360Y-15180D02*
X23360Y-14580D01*
X22172Y-13611D02*
X22255Y-13492D01*
X22314Y-13611D02*
X22314Y-13361D01*
X22219Y-13361D01*
X22195Y-13373D01*
X22184Y-13385D01*
X22172Y-13409D01*
X22172Y-13445D01*
X22184Y-13468D01*
X22195Y-13480D01*
X22219Y-13492D01*
X22314Y-13492D01*
X22076Y-13385D02*
X22064Y-13373D01*
X22041Y-13361D01*
X21981Y-13361D01*
X21957Y-13373D01*
X21945Y-13385D01*
X21934Y-13409D01*
X21934Y-13433D01*
X21945Y-13468D01*
X22088Y-13611D01*
X21934Y-13611D01*
X18616Y-15001D02*
X18731Y-14981D01*
X18697Y-15081D02*
X18838Y-14940D01*
X18784Y-14886D01*
X18765Y-14879D01*
X18751Y-14880D01*
X18731Y-14886D01*
X18710Y-14907D01*
X18704Y-14927D01*
X18704Y-14940D01*
X18710Y-14960D01*
X18764Y-15014D01*
X18482Y-14866D02*
X18562Y-14947D01*
X18522Y-14907D02*
X18663Y-14765D01*
X18656Y-14799D01*
X18656Y-14826D01*
X18663Y-14846D01*
X23663Y-15292D02*
X23673Y-15301D01*
X23701Y-15311D01*
X23720Y-15311D01*
X23749Y-15301D01*
X23768Y-15282D01*
X23777Y-15263D01*
X23787Y-15225D01*
X23787Y-15197D01*
X23777Y-15159D01*
X23768Y-15140D01*
X23749Y-15120D01*
X23720Y-15111D01*
X23701Y-15111D01*
X23673Y-15120D01*
X23663Y-15130D01*
X23473Y-15311D02*
X23587Y-15311D01*
X23530Y-15311D02*
X23530Y-15111D01*
X23549Y-15140D01*
X23568Y-15159D01*
X23587Y-15168D01*
%LPC*%
G54D12*
X18770Y-13090D03*
G54D13*
X22770Y-13090D03*
G54D14*
X22310Y-15940D03*
G54D15*
X23310Y-15940D03*
G54D16*
X20460Y-15870D03*
G54D17*
X20460Y-14870D03*
X19460Y-14870D03*
G54D18*
X22475Y-14080D03*
X21725Y-14080D03*
G54D10*
G36*
X18235Y-15686D02*
X18766Y-15155D01*
X19155Y-15544D01*
X18624Y-16075D01*
X18235Y-15686D01*
X18235Y-15686D01*
G37*
G36*
X18765Y-16216D02*
X19296Y-15685D01*
X19685Y-16074D01*
X19154Y-16605D01*
X18765Y-16216D01*
X18765Y-16216D01*
G37*
G54D18*
X22385Y-14880D03*
X23135Y-14880D03*
G54D10*
G36*
X16560Y-15476D02*
X17126Y-14910D01*
X17692Y-15476D01*
X17126Y-16042D01*
X16560Y-15476D01*
X16560Y-15476D01*
G37*
G54D15*
X17834Y-16184D03*
G54D14*
X16500Y-14130D03*
G54D15*
X16500Y-13130D03*
X17500Y-14130D03*
X17500Y-13130D03*
M02*
