G04 (created by PCBNEW-RS274X (2012-01-18 BZR 3371)-testing) date Sun 05 Feb 2012 03:29:24 PM EST*
G01*
G70*
G90*
%MOIN*%
G04 Gerber Fmt 3.4, Leading zero omitted, Abs format*
%FSLAX34Y34*%
G04 APERTURE LIST*
%ADD10C,0.006000*%
%ADD11C,0.070000*%
%ADD12R,0.070000X0.070000*%
%ADD13R,0.060000X0.060000*%
%ADD14C,0.060000*%
%ADD15R,0.055000X0.055000*%
%ADD16C,0.055000*%
%ADD17R,0.035000X0.055000*%
%ADD18C,0.008000*%
%ADD19C,0.010000*%
G04 APERTURE END LIST*
G54D10*
G54D11*
X18770Y-13090D03*
G54D12*
X22770Y-13090D03*
G54D13*
X22310Y-15940D03*
G54D14*
X23310Y-15940D03*
G54D15*
X20460Y-15870D03*
G54D16*
X20460Y-14870D03*
X19460Y-14870D03*
G54D17*
X22475Y-14080D03*
X21725Y-14080D03*
G54D10*
G36*
X18377Y-15686D02*
X18766Y-15297D01*
X19013Y-15544D01*
X18624Y-15933D01*
X18377Y-15686D01*
X18377Y-15686D01*
G37*
G36*
X18907Y-16216D02*
X19296Y-15827D01*
X19543Y-16074D01*
X19154Y-16463D01*
X18907Y-16216D01*
X18907Y-16216D01*
G37*
G54D17*
X22385Y-14880D03*
X23135Y-14880D03*
G54D10*
G36*
X16702Y-15476D02*
X17126Y-15052D01*
X17550Y-15476D01*
X17126Y-15900D01*
X16702Y-15476D01*
X16702Y-15476D01*
G37*
G54D14*
X17834Y-16184D03*
G54D13*
X16500Y-14130D03*
G54D14*
X16500Y-13130D03*
X17500Y-14130D03*
X17500Y-13130D03*
G54D18*
X17904Y-16184D02*
X18470Y-16750D01*
X23135Y-14880D02*
X23135Y-15765D01*
X23135Y-15765D02*
X23310Y-15940D01*
X20460Y-15870D02*
X21170Y-15870D01*
X22700Y-16550D02*
X23310Y-15940D01*
X21850Y-16550D02*
X22700Y-16550D01*
X21170Y-15870D02*
X21850Y-16550D01*
X17834Y-16184D02*
X17904Y-16184D01*
X19580Y-16750D02*
X20460Y-15870D01*
X18470Y-16750D02*
X19580Y-16750D01*
X22310Y-15940D02*
X22310Y-15930D01*
X21725Y-15345D02*
X21725Y-14080D01*
X22310Y-15930D02*
X21725Y-15345D01*
X17500Y-14420D02*
X18695Y-15615D01*
X17500Y-14130D02*
X17500Y-14420D01*
X19225Y-16145D02*
X19225Y-16105D01*
X19225Y-16105D02*
X20460Y-14870D01*
X22475Y-14080D02*
X22475Y-13385D01*
X22475Y-13385D02*
X22770Y-13090D01*
X22385Y-14880D02*
X22385Y-14605D01*
X22475Y-14515D02*
X22475Y-14080D01*
X22385Y-14605D02*
X22475Y-14515D01*
X17500Y-13130D02*
X18730Y-13130D01*
X19460Y-13860D02*
X19460Y-14870D01*
X18730Y-13130D02*
X19460Y-13860D01*
X16500Y-14130D02*
X16500Y-14850D01*
X16500Y-14850D02*
X17126Y-15476D01*
X16500Y-13130D02*
X16500Y-14130D01*
G54D10*
G36*
X23815Y-16855D02*
X23625Y-16855D01*
X23625Y-16325D01*
X23310Y-16011D01*
X22995Y-16325D01*
X23024Y-16420D01*
X23229Y-16493D01*
X23447Y-16482D01*
X23596Y-16420D01*
X23625Y-16325D01*
X23625Y-16855D01*
X20985Y-16855D01*
X20985Y-15982D01*
X20923Y-15920D01*
X20510Y-15920D01*
X20510Y-16333D01*
X20572Y-16395D01*
X20686Y-16394D01*
X20785Y-16394D01*
X20876Y-16356D01*
X20946Y-16286D01*
X20984Y-16194D01*
X20985Y-15982D01*
X20985Y-16855D01*
X20410Y-16855D01*
X20410Y-16333D01*
X20410Y-15920D01*
X19997Y-15920D01*
X19935Y-15982D01*
X19936Y-16194D01*
X19974Y-16286D01*
X20044Y-16356D01*
X20135Y-16394D01*
X20234Y-16394D01*
X20348Y-16395D01*
X20410Y-16333D01*
X20410Y-16855D01*
X19905Y-16855D01*
X18376Y-16853D01*
X18376Y-16321D01*
X18329Y-16234D01*
X17884Y-16234D01*
X17884Y-16679D01*
X17971Y-16726D01*
X18168Y-16632D01*
X18314Y-16470D01*
X18376Y-16321D01*
X18376Y-16853D01*
X17784Y-16852D01*
X17784Y-16679D01*
X17784Y-16234D01*
X17339Y-16234D01*
X17292Y-16321D01*
X17386Y-16518D01*
X17548Y-16664D01*
X17697Y-16726D01*
X17784Y-16679D01*
X17784Y-16852D01*
X15990Y-16850D01*
X15979Y-14547D01*
X15989Y-14571D01*
X16059Y-14641D01*
X16150Y-14679D01*
X16210Y-14679D01*
X16210Y-14850D01*
X16232Y-14961D01*
X16295Y-15055D01*
X16532Y-15292D01*
X16491Y-15335D01*
X16453Y-15427D01*
X16453Y-15525D01*
X16490Y-15617D01*
X16560Y-15687D01*
X16985Y-16111D01*
X17077Y-16149D01*
X17175Y-16149D01*
X17267Y-16112D01*
X17306Y-16072D01*
X17339Y-16134D01*
X17643Y-16134D01*
X17728Y-16219D01*
X17834Y-16113D01*
X17940Y-16219D01*
X18025Y-16134D01*
X18329Y-16134D01*
X18376Y-16047D01*
X18366Y-16027D01*
X18483Y-16144D01*
X18575Y-16182D01*
X18658Y-16182D01*
X18658Y-16265D01*
X18695Y-16356D01*
X18765Y-16426D01*
X19013Y-16674D01*
X19105Y-16712D01*
X19204Y-16712D01*
X19295Y-16675D01*
X19365Y-16605D01*
X19754Y-16216D01*
X19792Y-16124D01*
X19792Y-16025D01*
X19769Y-15970D01*
X19958Y-15781D01*
X19997Y-15820D01*
X20360Y-15820D01*
X20410Y-15820D01*
X20510Y-15820D01*
X20560Y-15820D01*
X20923Y-15820D01*
X20985Y-15758D01*
X20984Y-15546D01*
X20946Y-15454D01*
X20876Y-15384D01*
X20785Y-15346D01*
X20686Y-15346D01*
X20682Y-15345D01*
X20757Y-15315D01*
X20905Y-15168D01*
X20985Y-14975D01*
X20985Y-14766D01*
X20905Y-14573D01*
X20758Y-14425D01*
X20565Y-14345D01*
X20356Y-14345D01*
X20163Y-14425D01*
X20015Y-14572D01*
X19959Y-14705D01*
X19905Y-14573D01*
X19758Y-14425D01*
X19750Y-14421D01*
X19750Y-13860D01*
X19728Y-13749D01*
X19665Y-13655D01*
X19325Y-13315D01*
X19369Y-13209D01*
X19369Y-12971D01*
X19278Y-12751D01*
X19109Y-12582D01*
X19019Y-12545D01*
X22263Y-12545D01*
X22209Y-12599D01*
X22171Y-12690D01*
X22171Y-12789D01*
X22171Y-13489D01*
X22185Y-13522D01*
X22185Y-13583D01*
X22159Y-13594D01*
X22100Y-13653D01*
X22041Y-13594D01*
X21950Y-13556D01*
X21851Y-13556D01*
X21501Y-13556D01*
X21409Y-13594D01*
X21339Y-13664D01*
X21301Y-13755D01*
X21301Y-13854D01*
X21301Y-14404D01*
X21339Y-14496D01*
X21409Y-14566D01*
X21435Y-14576D01*
X21435Y-15345D01*
X21457Y-15456D01*
X21520Y-15550D01*
X21761Y-15791D01*
X21761Y-16289D01*
X21799Y-16381D01*
X21869Y-16451D01*
X21960Y-16489D01*
X22059Y-16489D01*
X22659Y-16489D01*
X22751Y-16451D01*
X22821Y-16381D01*
X22859Y-16290D01*
X22859Y-16234D01*
X22925Y-16255D01*
X23239Y-15940D01*
X22925Y-15625D01*
X22859Y-15645D01*
X22859Y-15591D01*
X22821Y-15499D01*
X22751Y-15429D01*
X22660Y-15391D01*
X22640Y-15391D01*
X22701Y-15366D01*
X22760Y-15307D01*
X22819Y-15366D01*
X22911Y-15404D01*
X23023Y-15405D01*
X23085Y-15343D01*
X23085Y-14980D01*
X23085Y-14930D01*
X23085Y-14830D01*
X23085Y-14780D01*
X23085Y-14417D01*
X23023Y-14355D01*
X22911Y-14356D01*
X22899Y-14360D01*
X22899Y-14306D01*
X22899Y-13756D01*
X22871Y-13689D01*
X23169Y-13689D01*
X23261Y-13651D01*
X23331Y-13581D01*
X23369Y-13490D01*
X23369Y-13391D01*
X23369Y-12691D01*
X23331Y-12599D01*
X23277Y-12545D01*
X23815Y-12545D01*
X23815Y-15714D01*
X23790Y-15654D01*
X23695Y-15625D01*
X23625Y-15695D01*
X23625Y-15555D01*
X23596Y-15460D01*
X23395Y-15388D01*
X23451Y-15366D01*
X23521Y-15296D01*
X23559Y-15205D01*
X23559Y-15106D01*
X23560Y-14992D01*
X23560Y-14768D01*
X23559Y-14654D01*
X23559Y-14555D01*
X23521Y-14464D01*
X23451Y-14394D01*
X23359Y-14356D01*
X23247Y-14355D01*
X23185Y-14417D01*
X23185Y-14830D01*
X23498Y-14830D01*
X23560Y-14768D01*
X23560Y-14992D01*
X23498Y-14930D01*
X23185Y-14930D01*
X23185Y-15343D01*
X23236Y-15394D01*
X23173Y-15398D01*
X23024Y-15460D01*
X22995Y-15555D01*
X23310Y-15869D01*
X23625Y-15555D01*
X23625Y-15695D01*
X23381Y-15940D01*
X23695Y-16255D01*
X23790Y-16226D01*
X23815Y-16155D01*
X23815Y-16855D01*
X23815Y-16855D01*
G37*
G54D19*
X23815Y-16855D02*
X23625Y-16855D01*
X23625Y-16325D01*
X23310Y-16011D01*
X22995Y-16325D01*
X23024Y-16420D01*
X23229Y-16493D01*
X23447Y-16482D01*
X23596Y-16420D01*
X23625Y-16325D01*
X23625Y-16855D01*
X20985Y-16855D01*
X20985Y-15982D01*
X20923Y-15920D01*
X20510Y-15920D01*
X20510Y-16333D01*
X20572Y-16395D01*
X20686Y-16394D01*
X20785Y-16394D01*
X20876Y-16356D01*
X20946Y-16286D01*
X20984Y-16194D01*
X20985Y-15982D01*
X20985Y-16855D01*
X20410Y-16855D01*
X20410Y-16333D01*
X20410Y-15920D01*
X19997Y-15920D01*
X19935Y-15982D01*
X19936Y-16194D01*
X19974Y-16286D01*
X20044Y-16356D01*
X20135Y-16394D01*
X20234Y-16394D01*
X20348Y-16395D01*
X20410Y-16333D01*
X20410Y-16855D01*
X19905Y-16855D01*
X18376Y-16853D01*
X18376Y-16321D01*
X18329Y-16234D01*
X17884Y-16234D01*
X17884Y-16679D01*
X17971Y-16726D01*
X18168Y-16632D01*
X18314Y-16470D01*
X18376Y-16321D01*
X18376Y-16853D01*
X17784Y-16852D01*
X17784Y-16679D01*
X17784Y-16234D01*
X17339Y-16234D01*
X17292Y-16321D01*
X17386Y-16518D01*
X17548Y-16664D01*
X17697Y-16726D01*
X17784Y-16679D01*
X17784Y-16852D01*
X15990Y-16850D01*
X15979Y-14547D01*
X15989Y-14571D01*
X16059Y-14641D01*
X16150Y-14679D01*
X16210Y-14679D01*
X16210Y-14850D01*
X16232Y-14961D01*
X16295Y-15055D01*
X16532Y-15292D01*
X16491Y-15335D01*
X16453Y-15427D01*
X16453Y-15525D01*
X16490Y-15617D01*
X16560Y-15687D01*
X16985Y-16111D01*
X17077Y-16149D01*
X17175Y-16149D01*
X17267Y-16112D01*
X17306Y-16072D01*
X17339Y-16134D01*
X17643Y-16134D01*
X17728Y-16219D01*
X17834Y-16113D01*
X17940Y-16219D01*
X18025Y-16134D01*
X18329Y-16134D01*
X18376Y-16047D01*
X18366Y-16027D01*
X18483Y-16144D01*
X18575Y-16182D01*
X18658Y-16182D01*
X18658Y-16265D01*
X18695Y-16356D01*
X18765Y-16426D01*
X19013Y-16674D01*
X19105Y-16712D01*
X19204Y-16712D01*
X19295Y-16675D01*
X19365Y-16605D01*
X19754Y-16216D01*
X19792Y-16124D01*
X19792Y-16025D01*
X19769Y-15970D01*
X19958Y-15781D01*
X19997Y-15820D01*
X20360Y-15820D01*
X20410Y-15820D01*
X20510Y-15820D01*
X20560Y-15820D01*
X20923Y-15820D01*
X20985Y-15758D01*
X20984Y-15546D01*
X20946Y-15454D01*
X20876Y-15384D01*
X20785Y-15346D01*
X20686Y-15346D01*
X20682Y-15345D01*
X20757Y-15315D01*
X20905Y-15168D01*
X20985Y-14975D01*
X20985Y-14766D01*
X20905Y-14573D01*
X20758Y-14425D01*
X20565Y-14345D01*
X20356Y-14345D01*
X20163Y-14425D01*
X20015Y-14572D01*
X19959Y-14705D01*
X19905Y-14573D01*
X19758Y-14425D01*
X19750Y-14421D01*
X19750Y-13860D01*
X19728Y-13749D01*
X19665Y-13655D01*
X19325Y-13315D01*
X19369Y-13209D01*
X19369Y-12971D01*
X19278Y-12751D01*
X19109Y-12582D01*
X19019Y-12545D01*
X22263Y-12545D01*
X22209Y-12599D01*
X22171Y-12690D01*
X22171Y-12789D01*
X22171Y-13489D01*
X22185Y-13522D01*
X22185Y-13583D01*
X22159Y-13594D01*
X22100Y-13653D01*
X22041Y-13594D01*
X21950Y-13556D01*
X21851Y-13556D01*
X21501Y-13556D01*
X21409Y-13594D01*
X21339Y-13664D01*
X21301Y-13755D01*
X21301Y-13854D01*
X21301Y-14404D01*
X21339Y-14496D01*
X21409Y-14566D01*
X21435Y-14576D01*
X21435Y-15345D01*
X21457Y-15456D01*
X21520Y-15550D01*
X21761Y-15791D01*
X21761Y-16289D01*
X21799Y-16381D01*
X21869Y-16451D01*
X21960Y-16489D01*
X22059Y-16489D01*
X22659Y-16489D01*
X22751Y-16451D01*
X22821Y-16381D01*
X22859Y-16290D01*
X22859Y-16234D01*
X22925Y-16255D01*
X23239Y-15940D01*
X22925Y-15625D01*
X22859Y-15645D01*
X22859Y-15591D01*
X22821Y-15499D01*
X22751Y-15429D01*
X22660Y-15391D01*
X22640Y-15391D01*
X22701Y-15366D01*
X22760Y-15307D01*
X22819Y-15366D01*
X22911Y-15404D01*
X23023Y-15405D01*
X23085Y-15343D01*
X23085Y-14980D01*
X23085Y-14930D01*
X23085Y-14830D01*
X23085Y-14780D01*
X23085Y-14417D01*
X23023Y-14355D01*
X22911Y-14356D01*
X22899Y-14360D01*
X22899Y-14306D01*
X22899Y-13756D01*
X22871Y-13689D01*
X23169Y-13689D01*
X23261Y-13651D01*
X23331Y-13581D01*
X23369Y-13490D01*
X23369Y-13391D01*
X23369Y-12691D01*
X23331Y-12599D01*
X23277Y-12545D01*
X23815Y-12545D01*
X23815Y-15714D01*
X23790Y-15654D01*
X23695Y-15625D01*
X23625Y-15695D01*
X23625Y-15555D01*
X23596Y-15460D01*
X23395Y-15388D01*
X23451Y-15366D01*
X23521Y-15296D01*
X23559Y-15205D01*
X23559Y-15106D01*
X23560Y-14992D01*
X23560Y-14768D01*
X23559Y-14654D01*
X23559Y-14555D01*
X23521Y-14464D01*
X23451Y-14394D01*
X23359Y-14356D01*
X23247Y-14355D01*
X23185Y-14417D01*
X23185Y-14830D01*
X23498Y-14830D01*
X23560Y-14768D01*
X23560Y-14992D01*
X23498Y-14930D01*
X23185Y-14930D01*
X23185Y-15343D01*
X23236Y-15394D01*
X23173Y-15398D01*
X23024Y-15460D01*
X22995Y-15555D01*
X23310Y-15869D01*
X23625Y-15555D01*
X23625Y-15695D01*
X23381Y-15940D01*
X23695Y-16255D01*
X23790Y-16226D01*
X23815Y-16155D01*
X23815Y-16855D01*
M02*
