G04 (created by PCBNEW-RS274X (2012-01-18 BZR 3371)-testing) date Sun 05 Feb 2012 03:34:20 PM EST*
G01*
G70*
G90*
%MOIN*%
G04 Gerber Fmt 3.4, Leading zero omitted, Abs format*
%FSLAX34Y34*%
G04 APERTURE LIST*
%ADD10C,0.006000*%
%ADD11C,0.002500*%
%ADD12C,0.003800*%
%ADD13C,0.012000*%
%ADD14C,0.008000*%
%ADD15C,0.005000*%
%ADD16C,0.090000*%
%ADD17R,0.090000X0.090000*%
%ADD18R,0.080000X0.080000*%
%ADD19C,0.080000*%
%ADD20R,0.075000X0.075000*%
%ADD21C,0.075000*%
G04 APERTURE END LIST*
G54D10*
G54D11*
X23591Y-16376D02*
X23581Y-16380D01*
X23562Y-16380D01*
X23553Y-16376D01*
X23548Y-16371D01*
X23543Y-16361D01*
X23543Y-16333D01*
X23548Y-16323D01*
X23553Y-16319D01*
X23562Y-16314D01*
X23581Y-16314D01*
X23591Y-16319D01*
X23677Y-16380D02*
X23677Y-16328D01*
X23672Y-16319D01*
X23662Y-16314D01*
X23643Y-16314D01*
X23634Y-16319D01*
X23677Y-16376D02*
X23667Y-16380D01*
X23643Y-16380D01*
X23634Y-16376D01*
X23629Y-16366D01*
X23629Y-16357D01*
X23634Y-16347D01*
X23643Y-16342D01*
X23667Y-16342D01*
X23677Y-16338D01*
X23710Y-16314D02*
X23748Y-16314D01*
X23724Y-16280D02*
X23724Y-16366D01*
X23729Y-16376D01*
X23738Y-16380D01*
X23748Y-16380D01*
G54D12*
X23331Y-14131D02*
X23438Y-14131D01*
X23459Y-14139D01*
X23474Y-14153D01*
X23481Y-14174D01*
X23481Y-14189D01*
X23331Y-14082D02*
X23331Y-13996D01*
X23481Y-14039D02*
X23331Y-14039D01*
X23481Y-13946D02*
X23331Y-13946D01*
X23402Y-13946D02*
X23402Y-13861D01*
X23481Y-13861D02*
X23331Y-13861D01*
X23481Y-13789D02*
X23331Y-13789D01*
X23402Y-13718D02*
X23402Y-13668D01*
X23481Y-13647D02*
X23481Y-13718D01*
X23331Y-13718D01*
X23331Y-13647D01*
X23402Y-13532D02*
X23402Y-13582D01*
X23481Y-13582D02*
X23331Y-13582D01*
X23331Y-13511D01*
X23331Y-13361D02*
X23481Y-13311D01*
X23331Y-13261D01*
X23331Y-13182D02*
X23331Y-13167D01*
X23338Y-13153D01*
X23345Y-13146D01*
X23359Y-13139D01*
X23388Y-13132D01*
X23424Y-13132D01*
X23452Y-13139D01*
X23466Y-13146D01*
X23474Y-13153D01*
X23481Y-13167D01*
X23481Y-13182D01*
X23474Y-13196D01*
X23466Y-13203D01*
X23452Y-13210D01*
X23424Y-13217D01*
X23388Y-13217D01*
X23359Y-13210D01*
X23345Y-13203D01*
X23338Y-13196D01*
X23331Y-13182D01*
X23466Y-13067D02*
X23474Y-13060D01*
X23481Y-13067D01*
X23474Y-13074D01*
X23466Y-13067D01*
X23481Y-13067D01*
X23481Y-12918D02*
X23481Y-13003D01*
X23481Y-12961D02*
X23331Y-12961D01*
X23352Y-12975D01*
X23366Y-12989D01*
X23374Y-13003D01*
X23593Y-14007D02*
X23586Y-14000D01*
X23579Y-13986D01*
X23579Y-13950D01*
X23586Y-13936D01*
X23593Y-13929D01*
X23607Y-13922D01*
X23622Y-13922D01*
X23643Y-13929D01*
X23729Y-14015D01*
X23729Y-13922D01*
X23579Y-13829D02*
X23579Y-13814D01*
X23586Y-13800D01*
X23593Y-13793D01*
X23607Y-13786D01*
X23636Y-13779D01*
X23672Y-13779D01*
X23700Y-13786D01*
X23714Y-13793D01*
X23722Y-13800D01*
X23729Y-13814D01*
X23729Y-13829D01*
X23722Y-13843D01*
X23714Y-13850D01*
X23700Y-13857D01*
X23672Y-13864D01*
X23636Y-13864D01*
X23607Y-13857D01*
X23593Y-13850D01*
X23586Y-13843D01*
X23579Y-13829D01*
X23729Y-13636D02*
X23729Y-13721D01*
X23729Y-13679D02*
X23579Y-13679D01*
X23600Y-13693D01*
X23614Y-13707D01*
X23622Y-13721D01*
X23593Y-13578D02*
X23586Y-13571D01*
X23579Y-13557D01*
X23579Y-13521D01*
X23586Y-13507D01*
X23593Y-13500D01*
X23607Y-13493D01*
X23622Y-13493D01*
X23643Y-13500D01*
X23729Y-13586D01*
X23729Y-13493D01*
X23579Y-13385D02*
X23686Y-13385D01*
X23707Y-13393D01*
X23722Y-13407D01*
X23729Y-13428D01*
X23729Y-13443D01*
X23686Y-13321D02*
X23686Y-13250D01*
X23729Y-13336D02*
X23579Y-13286D01*
X23729Y-13236D01*
X23729Y-13185D02*
X23579Y-13185D01*
X23729Y-13100D01*
X23579Y-13100D01*
G54D13*
X19270Y-12590D02*
X22270Y-12590D01*
X22270Y-12590D02*
X22270Y-13590D01*
X22270Y-13590D02*
X19270Y-13590D01*
X19270Y-13590D02*
X19270Y-12590D01*
X22020Y-12590D02*
X22020Y-13590D01*
X21770Y-13590D02*
X21770Y-12590D01*
X19270Y-13090D02*
X18770Y-13090D01*
X22270Y-13090D02*
X22770Y-13090D01*
G54D10*
X21810Y-16440D02*
X21810Y-15440D01*
X21810Y-15440D02*
X23810Y-15440D01*
X23810Y-15440D02*
X23810Y-16440D01*
X23810Y-16440D02*
X21810Y-16440D01*
G54D13*
X18960Y-14870D02*
X20460Y-16370D01*
X20460Y-16370D02*
X20960Y-16370D01*
X20960Y-16370D02*
X21460Y-15870D01*
X21460Y-15870D02*
X21460Y-14870D01*
X21460Y-14870D02*
X20460Y-13870D01*
X20460Y-13870D02*
X19460Y-13870D01*
X19460Y-13870D02*
X18960Y-14370D01*
X18960Y-14370D02*
X18960Y-14870D01*
G54D10*
X16419Y-15476D02*
X17126Y-14769D01*
X17126Y-14769D02*
X18541Y-16184D01*
X18541Y-16184D02*
X17834Y-16891D01*
X17834Y-16891D02*
X16419Y-15476D01*
G54D13*
X16000Y-12630D02*
X18000Y-12630D01*
X18000Y-12630D02*
X18000Y-14630D01*
X18000Y-14630D02*
X16000Y-14630D01*
X16000Y-14630D02*
X16000Y-12630D01*
G54D11*
X19387Y-13450D02*
X19387Y-13350D01*
X19411Y-13350D01*
X19425Y-13355D01*
X19434Y-13365D01*
X19439Y-13374D01*
X19444Y-13393D01*
X19444Y-13408D01*
X19439Y-13427D01*
X19434Y-13436D01*
X19425Y-13446D01*
X19411Y-13450D01*
X19387Y-13450D01*
X19539Y-13450D02*
X19482Y-13450D01*
X19511Y-13450D02*
X19511Y-13350D01*
X19501Y-13365D01*
X19492Y-13374D01*
X19482Y-13379D01*
G54D14*
X19980Y-13292D02*
X19980Y-12792D01*
X20075Y-12792D01*
X20133Y-12816D01*
X20171Y-12864D01*
X20190Y-12911D01*
X20209Y-13007D01*
X20209Y-13078D01*
X20190Y-13173D01*
X20171Y-13221D01*
X20133Y-13269D01*
X20075Y-13292D01*
X19980Y-13292D01*
X20380Y-13292D02*
X20380Y-12792D01*
X20646Y-12792D02*
X20723Y-12792D01*
X20761Y-12816D01*
X20799Y-12864D01*
X20818Y-12959D01*
X20818Y-13126D01*
X20799Y-13221D01*
X20761Y-13269D01*
X20723Y-13292D01*
X20646Y-13292D01*
X20608Y-13269D01*
X20570Y-13221D01*
X20551Y-13126D01*
X20551Y-12959D01*
X20570Y-12864D01*
X20608Y-12816D01*
X20646Y-12792D01*
X20989Y-13292D02*
X20989Y-12792D01*
X21084Y-12792D01*
X21142Y-12816D01*
X21180Y-12864D01*
X21199Y-12911D01*
X21218Y-13007D01*
X21218Y-13078D01*
X21199Y-13173D01*
X21180Y-13221D01*
X21142Y-13269D01*
X21084Y-13292D01*
X20989Y-13292D01*
X21389Y-13030D02*
X21523Y-13030D01*
X21580Y-13292D02*
X21389Y-13292D01*
X21389Y-12792D01*
X21580Y-12792D01*
G54D11*
X21710Y-15783D02*
X21610Y-15783D01*
X21610Y-15759D01*
X21615Y-15745D01*
X21625Y-15736D01*
X21634Y-15731D01*
X21653Y-15726D01*
X21668Y-15726D01*
X21687Y-15731D01*
X21696Y-15736D01*
X21706Y-15745D01*
X21710Y-15759D01*
X21710Y-15783D01*
X21610Y-15693D02*
X21610Y-15631D01*
X21649Y-15664D01*
X21649Y-15650D01*
X21653Y-15640D01*
X21658Y-15636D01*
X21668Y-15631D01*
X21691Y-15631D01*
X21701Y-15636D01*
X21706Y-15640D01*
X21710Y-15650D01*
X21710Y-15678D01*
X21706Y-15688D01*
X21701Y-15693D01*
G54D15*
X21342Y-16451D02*
X21247Y-16451D01*
X21247Y-16251D01*
X21409Y-16346D02*
X21475Y-16346D01*
X21504Y-16451D02*
X21409Y-16451D01*
X21409Y-16251D01*
X21504Y-16251D01*
X21590Y-16451D02*
X21590Y-16251D01*
X21637Y-16251D01*
X21666Y-16260D01*
X21685Y-16280D01*
X21694Y-16299D01*
X21704Y-16337D01*
X21704Y-16365D01*
X21694Y-16403D01*
X21685Y-16422D01*
X21666Y-16441D01*
X21637Y-16451D01*
X21590Y-16451D01*
X20040Y-14219D02*
X20030Y-14238D01*
X20011Y-14257D01*
X19983Y-14286D01*
X19973Y-14305D01*
X19973Y-14324D01*
X20021Y-14314D02*
X20011Y-14333D01*
X19992Y-14352D01*
X19954Y-14362D01*
X19888Y-14362D01*
X19850Y-14352D01*
X19830Y-14333D01*
X19821Y-14314D01*
X19821Y-14276D01*
X19830Y-14257D01*
X19850Y-14238D01*
X19888Y-14229D01*
X19954Y-14229D01*
X19992Y-14238D01*
X20011Y-14257D01*
X20021Y-14276D01*
X20021Y-14314D01*
X20021Y-14038D02*
X20021Y-14152D01*
X20021Y-14095D02*
X19821Y-14095D01*
X19850Y-14114D01*
X19869Y-14133D01*
X19878Y-14152D01*
X21050Y-15902D02*
X21040Y-15892D01*
X21031Y-15873D01*
X21031Y-15826D01*
X21040Y-15807D01*
X21050Y-15797D01*
X21069Y-15788D01*
X21088Y-15788D01*
X21117Y-15797D01*
X21231Y-15911D01*
X21231Y-15788D01*
X21231Y-15702D02*
X21031Y-15702D01*
X21231Y-15588D01*
X21031Y-15588D01*
X21031Y-15511D02*
X21031Y-15388D01*
X21107Y-15454D01*
X21107Y-15426D01*
X21117Y-15407D01*
X21126Y-15397D01*
X21145Y-15388D01*
X21193Y-15388D01*
X21212Y-15397D01*
X21221Y-15407D01*
X21231Y-15426D01*
X21231Y-15483D01*
X21221Y-15502D01*
X21212Y-15511D01*
X21031Y-15264D02*
X21031Y-15245D01*
X21040Y-15226D01*
X21050Y-15217D01*
X21069Y-15207D01*
X21107Y-15198D01*
X21155Y-15198D01*
X21193Y-15207D01*
X21212Y-15217D01*
X21221Y-15226D01*
X21231Y-15245D01*
X21231Y-15264D01*
X21221Y-15283D01*
X21212Y-15293D01*
X21193Y-15302D01*
X21155Y-15312D01*
X21107Y-15312D01*
X21069Y-15302D01*
X21050Y-15293D01*
X21040Y-15283D01*
X21031Y-15264D01*
X21231Y-15103D02*
X21231Y-15065D01*
X21221Y-15046D01*
X21212Y-15036D01*
X21183Y-15017D01*
X21145Y-15008D01*
X21069Y-15008D01*
X21050Y-15017D01*
X21040Y-15027D01*
X21031Y-15046D01*
X21031Y-15084D01*
X21040Y-15103D01*
X21050Y-15112D01*
X21069Y-15122D01*
X21117Y-15122D01*
X21136Y-15112D01*
X21145Y-15103D01*
X21155Y-15084D01*
X21155Y-15046D01*
X21145Y-15027D01*
X21136Y-15017D01*
X21117Y-15008D01*
X21098Y-14837D02*
X21231Y-14837D01*
X21021Y-14884D02*
X21164Y-14932D01*
X21164Y-14808D01*
G54D11*
X17280Y-14807D02*
X17351Y-14736D01*
X17378Y-14763D01*
X17381Y-14773D01*
X17381Y-14780D01*
X17377Y-14790D01*
X17367Y-14800D01*
X17357Y-14803D01*
X17350Y-14803D01*
X17340Y-14800D01*
X17313Y-14773D01*
X17388Y-14914D02*
X17347Y-14874D01*
X17368Y-14894D02*
X17438Y-14824D01*
X17421Y-14827D01*
X17408Y-14827D01*
X17397Y-14824D01*
G54D15*
X16529Y-15701D02*
X16435Y-15890D01*
X16623Y-15795D01*
X16623Y-16051D02*
X16610Y-16050D01*
X16583Y-16037D01*
X16569Y-16024D01*
X16556Y-15996D01*
X16556Y-15970D01*
X16563Y-15950D01*
X16583Y-15916D01*
X16603Y-15896D01*
X16637Y-15876D01*
X16656Y-15869D01*
X16684Y-15868D01*
X16711Y-15883D01*
X16724Y-15896D01*
X16738Y-15922D01*
X16738Y-15936D01*
X16765Y-16192D02*
X16751Y-16192D01*
X16724Y-16179D01*
X16711Y-16165D01*
X16697Y-16138D01*
X16697Y-16111D01*
X16705Y-16091D01*
X16724Y-16057D01*
X16744Y-16037D01*
X16778Y-16018D01*
X16798Y-16011D01*
X16825Y-16010D01*
X16852Y-16024D01*
X16866Y-16037D01*
X16879Y-16064D01*
X16879Y-16078D01*
X17343Y-16527D02*
X17336Y-16508D01*
X17316Y-16488D01*
X17289Y-16474D01*
X17262Y-16474D01*
X17242Y-16482D01*
X17208Y-16501D01*
X17188Y-16521D01*
X17168Y-16555D01*
X17161Y-16575D01*
X17161Y-16602D01*
X17175Y-16629D01*
X17188Y-16643D01*
X17215Y-16655D01*
X17228Y-16656D01*
X17276Y-16609D01*
X17249Y-16582D01*
X17276Y-16730D02*
X17417Y-16589D01*
X17356Y-16811D01*
X17498Y-16670D01*
X17424Y-16879D02*
X17566Y-16737D01*
X17599Y-16771D01*
X17613Y-16798D01*
X17612Y-16825D01*
X17605Y-16845D01*
X17586Y-16879D01*
X17566Y-16899D01*
X17532Y-16919D01*
X17512Y-16926D01*
X17485Y-16926D01*
X17458Y-16912D01*
X17424Y-16879D01*
X16853Y-13641D02*
X16853Y-13441D01*
X16929Y-13441D01*
X16948Y-13450D01*
X16957Y-13460D01*
X16967Y-13479D01*
X16967Y-13508D01*
X16957Y-13527D01*
X16948Y-13536D01*
X16929Y-13546D01*
X16853Y-13546D01*
X17043Y-13460D02*
X17053Y-13450D01*
X17072Y-13441D01*
X17119Y-13441D01*
X17138Y-13450D01*
X17148Y-13460D01*
X17157Y-13479D01*
X17157Y-13498D01*
X17148Y-13527D01*
X17034Y-13641D01*
X17157Y-13641D01*
%LPC*%
G54D16*
X18770Y-13090D03*
G54D17*
X22770Y-13090D03*
G54D18*
X22310Y-15940D03*
G54D19*
X23310Y-15940D03*
G54D20*
X20460Y-15870D03*
G54D21*
X20460Y-14870D03*
X19460Y-14870D03*
G54D10*
G36*
X16560Y-15476D02*
X17126Y-14910D01*
X17692Y-15476D01*
X17126Y-16042D01*
X16560Y-15476D01*
X16560Y-15476D01*
G37*
G54D19*
X17834Y-16184D03*
G54D18*
X16500Y-14130D03*
G54D19*
X16500Y-13130D03*
X17500Y-14130D03*
X17500Y-13130D03*
M02*
